# xmcd CD database file
#
# Track frame offsets:
#	150
#	20995
#	34711
#	52149
#	86268
#	111584
#	131107
#	158349
#	174909
#	192804
#
# Disc length: 3186 seconds
#
# Revision: 0
# Processed by: cddbd v1.5.1PL0 Copyright (c) Steve Scherf et al.
# Submitted via: CDex 1.51
#
DISCID=800c700a
DTITLE=Gaia Epicus - Symphony Of Glory
DYEAR=2005
DGENRE=Power Metal
TTITLE0=Seize The Day
TTITLE1=Miracles
TTITLE2=No Release
TTITLE3=Be Thy Cross My Victory
TTITLE4=Wings Of Freedom
TTITLE5=Spanish Eyes
TTITLE6=Time And Space
TTITLE7=Chamber Of Secrets
TTITLE8=Hand Of Fate
TTITLE9=Symphony Of Glory
EXTD=YEAR: 2005
EXTT0=
EXTT1=
EXTT2=
EXTT3=
EXTT4=
EXTT5=
EXTT6=
EXTT7=
EXTT8=
EXTT9=
PLAYORDER=
